<?xml version="1.0" encoding="utf-8" standalone="no"?>
<!DOCTYPE svg PUBLIC "-//W3C//DTD SVG 1.1//EN"
  "http://www.w3.org/Graphics/SVG/1.1/DTD/svg11.dtd">
<!-- Created with matplotlib (http://matplotlib.org/) -->
<svg height="288pt" version="1.1" viewBox="0 0 432 288" width="432pt" xmlns="http://www.w3.org/2000/svg" xmlns:xlink="http://www.w3.org/1999/xlink">
 <defs>
  <style type="text/css">
*{stroke-linecap:butt;stroke-linejoin:round;}
  </style>
 </defs>
 <g id="figure_1">
  <g id="patch_1">
   <path d="M 0 288 
L 432 288 
L 432 0 
L 0 0 
z
" style="fill:#ffffff;"/>
  </g>
  <g id="axes_1">
   <g id="patch_2">
    <path d="M 54 252 
L 388.8 252 
L 388.8 34.56 
L 54 34.56 
z
" style="fill:#ffffff;"/>
   </g>
   <g id="PathCollection_1">
    <defs>
     <path d="M 0 3 
C 0.795609 3 1.55874 2.683901 2.12132 2.12132 
C 2.683901 1.55874 3 0.795609 3 0 
C 3 -0.795609 2.683901 -1.55874 2.12132 -2.12132 
C 1.55874 -2.683901 0.795609 -3 0 -3 
C -0.795609 -3 -1.55874 -2.683901 -2.12132 -2.12132 
C -2.683901 -1.55874 -3 -0.795609 -3 0 
C -3 0.795609 -2.683901 1.55874 -2.12132 2.12132 
C -1.55874 2.683901 -0.795609 3 0 3 
z
" id="m9762a6d9c2" style="stroke:#ff0000;"/>
    </defs>
    <g clip-path="url(#pfbb91de5a5)">
     <use style="fill:#ff0000;stroke:#ff0000;" x="100.662794" xlink:href="#m9762a6d9c2" y="241.81426"/>
     <use style="fill:#ff0000;stroke:#ff0000;" x="155.492314" xlink:href="#m9762a6d9c2" y="219.917757"/>
     <use style="fill:#ff0000;stroke:#ff0000;" x="133.144974" xlink:href="#m9762a6d9c2" y="241.81426"/>
     <use style="fill:#ff0000;stroke:#ff0000;" x="177.640318" xlink:href="#m9762a6d9c2" y="241.81426"/>
     <use style="fill:#ff0000;stroke:#ff0000;" x="178.581045" xlink:href="#m9762a6d9c2" y="241.81426"/>
     <use style="fill:#ff0000;stroke:#ff0000;" x="150.187508" xlink:href="#m9762a6d9c2" y="241.81426"/>
     <use style="fill:#ff0000;stroke:#ff0000;" x="219.734261" xlink:href="#m9762a6d9c2" y="241.81426"/>
     <use style="fill:#ff0000;stroke:#ff0000;" x="178.049143" xlink:href="#m9762a6d9c2" y="241.81426"/>
     <use style="fill:#ff0000;stroke:#ff0000;" x="128.483732" xlink:href="#m9762a6d9c2" y="241.81426"/>
     <use style="fill:#ff0000;stroke:#ff0000;" x="190.621161" xlink:href="#m9762a6d9c2" y="219.917757"/>
     <use style="fill:#ff0000;stroke:#ff0000;" x="157.45724" xlink:href="#m9762a6d9c2" y="198.021255"/>
     <use style="fill:#ff0000;stroke:#ff0000;" x="121.00285" xlink:href="#m9762a6d9c2" y="219.917757"/>
     <use style="fill:#ff0000;stroke:#ff0000;" x="161.020687" xlink:href="#m9762a6d9c2" y="154.228251"/>
     <use style="fill:#ff0000;stroke:#ff0000;" x="204.467492" xlink:href="#m9762a6d9c2" y="219.917757"/>
     <use style="fill:#ff0000;stroke:#ff0000;" x="223.754816" xlink:href="#m9762a6d9c2" y="154.228251"/>
     <use style="fill:#ff0000;stroke:#ff0000;" x="143.469276" xlink:href="#m9762a6d9c2" y="241.81426"/>
     <use style="fill:#ff0000;stroke:#ff0000;" x="147.803106" xlink:href="#m9762a6d9c2" y="241.81426"/>
     <use style="fill:#ff0000;stroke:#ff0000;" x="134.792345" xlink:href="#m9762a6d9c2" y="241.81426"/>
     <use style="fill:#ff0000;stroke:#ff0000;" x="162.108262" xlink:href="#m9762a6d9c2" y="241.81426"/>
     <use style="fill:#ff0000;stroke:#ff0000;" x="145.438058" xlink:href="#m9762a6d9c2" y="219.917757"/>
     <use style="fill:#ff0000;stroke:#ff0000;" x="133.296267" xlink:href="#m9762a6d9c2" y="241.81426"/>
     <use style="fill:#ff0000;stroke:#ff0000;" x="204.408787" xlink:href="#m9762a6d9c2" y="241.81426"/>
     <use style="fill:#ff0000;stroke:#ff0000;" x="212.299618" xlink:href="#m9762a6d9c2" y="198.021255"/>
     <use style="fill:#ff0000;stroke:#ff0000;" x="147.282271" xlink:href="#m9762a6d9c2" y="241.81426"/>
     <use style="fill:#ff0000;stroke:#ff0000;" x="132.95003" xlink:href="#m9762a6d9c2" y="241.81426"/>
     <use style="fill:#ff0000;stroke:#ff0000;" x="147.22417" xlink:href="#m9762a6d9c2" y="241.81426"/>
     <use style="fill:#ff0000;stroke:#ff0000;" x="216.400109" xlink:href="#m9762a6d9c2" y="132.331749"/>
     <use style="fill:#ff0000;stroke:#ff0000;" x="149.404381" xlink:href="#m9762a6d9c2" y="198.021255"/>
     <use style="fill:#ff0000;stroke:#ff0000;" x="143.608457" xlink:href="#m9762a6d9c2" y="219.917757"/>
     <use style="fill:#ff0000;stroke:#ff0000;" x="85.075322" xlink:href="#m9762a6d9c2" y="241.81426"/>
     <use style="fill:#ff0000;stroke:#ff0000;" x="148.537331" xlink:href="#m9762a6d9c2" y="241.81426"/>
     <use style="fill:#ff0000;stroke:#ff0000;" x="160.741911" xlink:href="#m9762a6d9c2" y="241.81426"/>
     <use style="fill:#ff0000;stroke:#ff0000;" x="149.048825" xlink:href="#m9762a6d9c2" y="154.228251"/>
     <use style="fill:#ff0000;stroke:#ff0000;" x="180.204791" xlink:href="#m9762a6d9c2" y="241.81426"/>
     <use style="fill:#ff0000;stroke:#ff0000;" x="135.782123" xlink:href="#m9762a6d9c2" y="241.81426"/>
     <use style="fill:#ff0000;stroke:#ff0000;" x="183.106386" xlink:href="#m9762a6d9c2" y="241.81426"/>
     <use style="fill:#ff0000;stroke:#ff0000;" x="109.689971" xlink:href="#m9762a6d9c2" y="219.917757"/>
     <use style="fill:#ff0000;stroke:#ff0000;" x="152.67104" xlink:href="#m9762a6d9c2" y="241.81426"/>
     <use style="fill:#ff0000;stroke:#ff0000;" x="141.937409" xlink:href="#m9762a6d9c2" y="241.81426"/>
     <use style="fill:#ff0000;stroke:#ff0000;" x="131.889312" xlink:href="#m9762a6d9c2" y="241.81426"/>
     <use style="fill:#ff0000;stroke:#ff0000;" x="226.43948" xlink:href="#m9762a6d9c2" y="241.81426"/>
     <use style="fill:#ff0000;stroke:#ff0000;" x="145.30407" xlink:href="#m9762a6d9c2" y="241.81426"/>
     <use style="fill:#ff0000;stroke:#ff0000;" x="112.829477" xlink:href="#m9762a6d9c2" y="241.81426"/>
     <use style="fill:#ff0000;stroke:#ff0000;" x="156.381503" xlink:href="#m9762a6d9c2" y="241.81426"/>
     <use style="fill:#ff0000;stroke:#ff0000;" x="128.167428" xlink:href="#m9762a6d9c2" y="219.917757"/>
     <use style="fill:#ff0000;stroke:#ff0000;" x="118.563979" xlink:href="#m9762a6d9c2" y="219.917757"/>
     <use style="fill:#ff0000;stroke:#ff0000;" x="96.624928" xlink:href="#m9762a6d9c2" y="241.81426"/>
     <use style="fill:#ff0000;stroke:#ff0000;" x="143.791928" xlink:href="#m9762a6d9c2" y="241.81426"/>
     <use style="fill:#ff0000;stroke:#ff0000;" x="156.07731" xlink:href="#m9762a6d9c2" y="241.81426"/>
     <use style="fill:#ff0000;stroke:#ff0000;" x="266.608605" xlink:href="#m9762a6d9c2" y="110.435247"/>
     <use style="fill:#ff0000;stroke:#ff0000;" x="148.926663" xlink:href="#m9762a6d9c2" y="198.021255"/>
     <use style="fill:#ff0000;stroke:#ff0000;" x="125.01094" xlink:href="#m9762a6d9c2" y="241.81426"/>
     <use style="fill:#ff0000;stroke:#ff0000;" x="148.331826" xlink:href="#m9762a6d9c2" y="219.917757"/>
     <use style="fill:#ff0000;stroke:#ff0000;" x="148.899601" xlink:href="#m9762a6d9c2" y="241.81426"/>
     <use style="fill:#ff0000;stroke:#ff0000;" x="134.472032" xlink:href="#m9762a6d9c2" y="241.81426"/>
     <use style="fill:#ff0000;stroke:#ff0000;" x="151.448975" xlink:href="#m9762a6d9c2" y="241.81426"/>
     <use style="fill:#ff0000;stroke:#ff0000;" x="176.573508" xlink:href="#m9762a6d9c2" y="241.81426"/>
     <use style="fill:#ff0000;stroke:#ff0000;" x="74.559002" xlink:href="#m9762a6d9c2" y="241.81426"/>
     <use style="fill:#ff0000;stroke:#ff0000;" x="140.132188" xlink:href="#m9762a6d9c2" y="198.021255"/>
     <use style="fill:#ff0000;stroke:#ff0000;" x="179.526407" xlink:href="#m9762a6d9c2" y="241.81426"/>
     <use style="fill:#ff0000;stroke:#ff0000;" x="174.766193" xlink:href="#m9762a6d9c2" y="241.81426"/>
     <use style="fill:#ff0000;stroke:#ff0000;" x="125.865217" xlink:href="#m9762a6d9c2" y="219.917757"/>
     <use style="fill:#ff0000;stroke:#ff0000;" x="236.273432" xlink:href="#m9762a6d9c2" y="198.021255"/>
     <use style="fill:#ff0000;stroke:#ff0000;" x="146.443574" xlink:href="#m9762a6d9c2" y="198.021255"/>
     <use style="fill:#ff0000;stroke:#ff0000;" x="146.867052" xlink:href="#m9762a6d9c2" y="198.021255"/>
     <use style="fill:#ff0000;stroke:#ff0000;" x="98.318745" xlink:href="#m9762a6d9c2" y="241.81426"/>
     <use style="fill:#ff0000;stroke:#ff0000;" x="125.261201" xlink:href="#m9762a6d9c2" y="241.81426"/>
     <use style="fill:#ff0000;stroke:#ff0000;" x="100.369567" xlink:href="#m9762a6d9c2" y="241.81426"/>
     <use style="fill:#ff0000;stroke:#ff0000;" x="122.97824" xlink:href="#m9762a6d9c2" y="241.81426"/>
     <use style="fill:#ff0000;stroke:#ff0000;" x="135.99586" xlink:href="#m9762a6d9c2" y="219.917757"/>
     <use style="fill:#ff0000;stroke:#ff0000;" x="110.448521" xlink:href="#m9762a6d9c2" y="241.81426"/>
     <use style="fill:#ff0000;stroke:#ff0000;" x="167.101298" xlink:href="#m9762a6d9c2" y="241.81426"/>
     <use style="fill:#ff0000;stroke:#ff0000;" x="148.307121" xlink:href="#m9762a6d9c2" y="241.81426"/>
     <use style="fill:#ff0000;stroke:#ff0000;" x="189.13494" xlink:href="#m9762a6d9c2" y="219.917757"/>
     <use style="fill:#ff0000;stroke:#ff0000;" x="156.52342" xlink:href="#m9762a6d9c2" y="219.917757"/>
     <use style="fill:#ff0000;stroke:#ff0000;" x="222.819069" xlink:href="#m9762a6d9c2" y="176.124753"/>
     <use style="fill:#ff0000;stroke:#ff0000;" x="116.555406" xlink:href="#m9762a6d9c2" y="241.81426"/>
     <use style="fill:#ff0000;stroke:#ff0000;" x="171.536504" xlink:href="#m9762a6d9c2" y="241.81426"/>
     <use style="fill:#ff0000;stroke:#ff0000;" x="174.961293" xlink:href="#m9762a6d9c2" y="198.021255"/>
     <use style="fill:#ff0000;stroke:#ff0000;" x="163.75944" xlink:href="#m9762a6d9c2" y="198.021255"/>
     <use style="fill:#ff0000;stroke:#ff0000;" x="182.803369" xlink:href="#m9762a6d9c2" y="219.917757"/>
     <use style="fill:#ff0000;stroke:#ff0000;" x="84.931344" xlink:href="#m9762a6d9c2" y="241.81426"/>
     <use style="fill:#ff0000;stroke:#ff0000;" x="148.109208" xlink:href="#m9762a6d9c2" y="241.81426"/>
     <use style="fill:#ff0000;stroke:#ff0000;" x="183.934857" xlink:href="#m9762a6d9c2" y="198.021255"/>
     <use style="fill:#ff0000;stroke:#ff0000;" x="159.194658" xlink:href="#m9762a6d9c2" y="241.81426"/>
     <use style="fill:#ff0000;stroke:#ff0000;" x="134.894252" xlink:href="#m9762a6d9c2" y="241.81426"/>
     <use style="fill:#ff0000;stroke:#ff0000;" x="224.607929" xlink:href="#m9762a6d9c2" y="241.81426"/>
     <use style="fill:#ff0000;stroke:#ff0000;" x="147.297141" xlink:href="#m9762a6d9c2" y="241.81426"/>
     <use style="fill:#ff0000;stroke:#ff0000;" x="137.770956" xlink:href="#m9762a6d9c2" y="219.917757"/>
     <use style="fill:#ff0000;stroke:#ff0000;" x="137.558784" xlink:href="#m9762a6d9c2" y="219.917757"/>
     <use style="fill:#ff0000;stroke:#ff0000;" x="148.455954" xlink:href="#m9762a6d9c2" y="219.917757"/>
     <use style="fill:#ff0000;stroke:#ff0000;" x="143.958263" xlink:href="#m9762a6d9c2" y="241.81426"/>
     <use style="fill:#ff0000;stroke:#ff0000;" x="141.175515" xlink:href="#m9762a6d9c2" y="241.81426"/>
     <use style="fill:#ff0000;stroke:#ff0000;" x="175.880886" xlink:href="#m9762a6d9c2" y="241.81426"/>
     <use style="fill:#ff0000;stroke:#ff0000;" x="239.305968" xlink:href="#m9762a6d9c2" y="241.81426"/>
     <use style="fill:#ff0000;stroke:#ff0000;" x="162.747379" xlink:href="#m9762a6d9c2" y="219.917757"/>
     <use style="fill:#ff0000;stroke:#ff0000;" x="133.108373" xlink:href="#m9762a6d9c2" y="241.81426"/>
     <use style="fill:#ff0000;stroke:#ff0000;" x="192.102686" xlink:href="#m9762a6d9c2" y="176.124753"/>
     <use style="fill:#ff0000;stroke:#ff0000;" x="99.753854" xlink:href="#m9762a6d9c2" y="241.81426"/>
     <use style="fill:#ff0000;stroke:#ff0000;" x="110.908674" xlink:href="#m9762a6d9c2" y="241.81426"/>
     <use style="fill:#ff0000;stroke:#ff0000;" x="112.207646" xlink:href="#m9762a6d9c2" y="241.81426"/>
     <use style="fill:#ff0000;stroke:#ff0000;" x="157.562475" xlink:href="#m9762a6d9c2" y="219.917757"/>
     <use style="fill:#ff0000;stroke:#ff0000;" x="152.826248" xlink:href="#m9762a6d9c2" y="241.81426"/>
     <use style="fill:#ff0000;stroke:#ff0000;" x="150.811023" xlink:href="#m9762a6d9c2" y="219.917757"/>
     <use style="fill:#ff0000;stroke:#ff0000;" x="90.626183" xlink:href="#m9762a6d9c2" y="219.917757"/>
     <use style="fill:#ff0000;stroke:#ff0000;" x="146.058633" xlink:href="#m9762a6d9c2" y="198.021255"/>
     <use style="fill:#ff0000;stroke:#ff0000;" x="115.090189" xlink:href="#m9762a6d9c2" y="241.81426"/>
     <use style="fill:#ff0000;stroke:#ff0000;" x="170.351769" xlink:href="#m9762a6d9c2" y="198.021255"/>
     <use style="fill:#ff0000;stroke:#ff0000;" x="236.057244" xlink:href="#m9762a6d9c2" y="154.228251"/>
     <use style="fill:#ff0000;stroke:#ff0000;" x="124.075834" xlink:href="#m9762a6d9c2" y="241.81426"/>
     <use style="fill:#ff0000;stroke:#ff0000;" x="120.707463" xlink:href="#m9762a6d9c2" y="241.81426"/>
     <use style="fill:#ff0000;stroke:#ff0000;" x="136.456457" xlink:href="#m9762a6d9c2" y="241.81426"/>
     <use style="fill:#ff0000;stroke:#ff0000;" x="126.494733" xlink:href="#m9762a6d9c2" y="241.81426"/>
     <use style="fill:#ff0000;stroke:#ff0000;" x="142.042878" xlink:href="#m9762a6d9c2" y="219.917757"/>
     <use style="fill:#ff0000;stroke:#ff0000;" x="111.962992" xlink:href="#m9762a6d9c2" y="219.917757"/>
     <use style="fill:#ff0000;stroke:#ff0000;" x="143.239727" xlink:href="#m9762a6d9c2" y="241.81426"/>
     <use style="fill:#ff0000;stroke:#ff0000;" x="146.922147" xlink:href="#m9762a6d9c2" y="241.81426"/>
     <use style="fill:#ff0000;stroke:#ff0000;" x="149.626538" xlink:href="#m9762a6d9c2" y="241.81426"/>
     <use style="fill:#ff0000;stroke:#ff0000;" x="187.822652" xlink:href="#m9762a6d9c2" y="219.917757"/>
     <use style="fill:#ff0000;stroke:#ff0000;" x="156.34353" xlink:href="#m9762a6d9c2" y="241.81426"/>
     <use style="fill:#ff0000;stroke:#ff0000;" x="131.650018" xlink:href="#m9762a6d9c2" y="241.81426"/>
     <use style="fill:#ff0000;stroke:#ff0000;" x="229.449998" xlink:href="#m9762a6d9c2" y="176.124753"/>
     <use style="fill:#ff0000;stroke:#ff0000;" x="154.600377" xlink:href="#m9762a6d9c2" y="241.81426"/>
     <use style="fill:#ff0000;stroke:#ff0000;" x="152.598477" xlink:href="#m9762a6d9c2" y="198.021255"/>
     <use style="fill:#ff0000;stroke:#ff0000;" x="132.019932" xlink:href="#m9762a6d9c2" y="241.81426"/>
     <use style="fill:#ff0000;stroke:#ff0000;" x="119.703955" xlink:href="#m9762a6d9c2" y="219.917757"/>
     <use style="fill:#ff0000;stroke:#ff0000;" x="120.588576" xlink:href="#m9762a6d9c2" y="241.81426"/>
     <use style="fill:#ff0000;stroke:#ff0000;" x="106.78155" xlink:href="#m9762a6d9c2" y="241.81426"/>
     <use style="fill:#ff0000;stroke:#ff0000;" x="164.606258" xlink:href="#m9762a6d9c2" y="219.917757"/>
     <use style="fill:#ff0000;stroke:#ff0000;" x="163.078465" xlink:href="#m9762a6d9c2" y="219.917757"/>
     <use style="fill:#ff0000;stroke:#ff0000;" x="191.792201" xlink:href="#m9762a6d9c2" y="219.917757"/>
     <use style="fill:#ff0000;stroke:#ff0000;" x="200.35888" xlink:href="#m9762a6d9c2" y="219.917757"/>
     <use style="fill:#ff0000;stroke:#ff0000;" x="150.422803" xlink:href="#m9762a6d9c2" y="241.81426"/>
     <use style="fill:#ff0000;stroke:#ff0000;" x="194.140951" xlink:href="#m9762a6d9c2" y="198.021255"/>
     <use style="fill:#ff0000;stroke:#ff0000;" x="171.832246" xlink:href="#m9762a6d9c2" y="198.021255"/>
     <use style="fill:#ff0000;stroke:#ff0000;" x="129.555426" xlink:href="#m9762a6d9c2" y="241.81426"/>
     <use style="fill:#ff0000;stroke:#ff0000;" x="121.590966" xlink:href="#m9762a6d9c2" y="241.81426"/>
     <use style="fill:#ff0000;stroke:#ff0000;" x="106.987849" xlink:href="#m9762a6d9c2" y="241.81426"/>
     <use style="fill:#ff0000;stroke:#ff0000;" x="213.303279" xlink:href="#m9762a6d9c2" y="176.124753"/>
     <use style="fill:#ff0000;stroke:#ff0000;" x="102.910861" xlink:href="#m9762a6d9c2" y="219.917757"/>
     <use style="fill:#ff0000;stroke:#ff0000;" x="92.550442" xlink:href="#m9762a6d9c2" y="241.81426"/>
     <use style="fill:#ff0000;stroke:#ff0000;" x="126.442178" xlink:href="#m9762a6d9c2" y="241.81426"/>
     <use style="fill:#ff0000;stroke:#ff0000;" x="118.070308" xlink:href="#m9762a6d9c2" y="241.81426"/>
     <use style="fill:#ff0000;stroke:#ff0000;" x="141.540547" xlink:href="#m9762a6d9c2" y="241.81426"/>
     <use style="fill:#ff0000;stroke:#ff0000;" x="173.473601" xlink:href="#m9762a6d9c2" y="198.021255"/>
     <use style="fill:#ff0000;stroke:#ff0000;" x="145.37174" xlink:href="#m9762a6d9c2" y="241.81426"/>
     <use style="fill:#ff0000;stroke:#ff0000;" x="118.291508" xlink:href="#m9762a6d9c2" y="241.81426"/>
     <use style="fill:#ff0000;stroke:#ff0000;" x="168.7102" xlink:href="#m9762a6d9c2" y="241.81426"/>
     <use style="fill:#ff0000;stroke:#ff0000;" x="257.969019" xlink:href="#m9762a6d9c2" y="132.331749"/>
     <use style="fill:#ff0000;stroke:#ff0000;" x="131.499927" xlink:href="#m9762a6d9c2" y="241.81426"/>
     <use style="fill:#ff0000;stroke:#ff0000;" x="92.876529" xlink:href="#m9762a6d9c2" y="241.81426"/>
     <use style="fill:#ff0000;stroke:#ff0000;" x="176.278246" xlink:href="#m9762a6d9c2" y="219.917757"/>
     <use style="fill:#ff0000;stroke:#ff0000;" x="89.510077" xlink:href="#m9762a6d9c2" y="241.81426"/>
     <use style="fill:#ff0000;stroke:#ff0000;" x="166.271974" xlink:href="#m9762a6d9c2" y="241.81426"/>
     <use style="fill:#ff0000;stroke:#ff0000;" x="148.220796" xlink:href="#m9762a6d9c2" y="241.81426"/>
     <use style="fill:#ff0000;stroke:#ff0000;" x="179.435005" xlink:href="#m9762a6d9c2" y="241.81426"/>
     <use style="fill:#ff0000;stroke:#ff0000;" x="72.645135" xlink:href="#m9762a6d9c2" y="241.81426"/>
     <use style="fill:#ff0000;stroke:#ff0000;" x="168.058255" xlink:href="#m9762a6d9c2" y="219.917757"/>
     <use style="fill:#ff0000;stroke:#ff0000;" x="131.644319" xlink:href="#m9762a6d9c2" y="241.81426"/>
     <use style="fill:#ff0000;stroke:#ff0000;" x="240.259334" xlink:href="#m9762a6d9c2" y="110.435247"/>
     <use style="fill:#ff0000;stroke:#ff0000;" x="116.837489" xlink:href="#m9762a6d9c2" y="219.917757"/>
     <use style="fill:#ff0000;stroke:#ff0000;" x="181.550228" xlink:href="#m9762a6d9c2" y="219.917757"/>
     <use style="fill:#ff0000;stroke:#ff0000;" x="136.886384" xlink:href="#m9762a6d9c2" y="198.021255"/>
     <use style="fill:#ff0000;stroke:#ff0000;" x="138.586334" xlink:href="#m9762a6d9c2" y="241.81426"/>
     <use style="fill:#ff0000;stroke:#ff0000;" x="77.831982" xlink:href="#m9762a6d9c2" y="241.81426"/>
     <use style="fill:#ff0000;stroke:#ff0000;" x="148.565802" xlink:href="#m9762a6d9c2" y="241.81426"/>
     <use style="fill:#ff0000;stroke:#ff0000;" x="118.697126" xlink:href="#m9762a6d9c2" y="219.917757"/>
     <use style="fill:#ff0000;stroke:#ff0000;" x="141.186437" xlink:href="#m9762a6d9c2" y="241.81426"/>
     <use style="fill:#ff0000;stroke:#ff0000;" x="181.063076" xlink:href="#m9762a6d9c2" y="241.81426"/>
     <use style="fill:#ff0000;stroke:#ff0000;" x="153.361452" xlink:href="#m9762a6d9c2" y="241.81426"/>
     <use style="fill:#ff0000;stroke:#ff0000;" x="221.983065" xlink:href="#m9762a6d9c2" y="241.81426"/>
     <use style="fill:#ff0000;stroke:#ff0000;" x="94.692846" xlink:href="#m9762a6d9c2" y="241.81426"/>
     <use style="fill:#ff0000;stroke:#ff0000;" x="202.61873" xlink:href="#m9762a6d9c2" y="219.917757"/>
     <use style="fill:#ff0000;stroke:#ff0000;" x="319.661663" xlink:href="#m9762a6d9c2" y="88.538745"/>
     <use style="fill:#ff0000;stroke:#ff0000;" x="148.183258" xlink:href="#m9762a6d9c2" y="241.81426"/>
     <use style="fill:#ff0000;stroke:#ff0000;" x="137.202561" xlink:href="#m9762a6d9c2" y="241.81426"/>
     <use style="fill:#ff0000;stroke:#ff0000;" x="220.384909" xlink:href="#m9762a6d9c2" y="219.917757"/>
     <use style="fill:#ff0000;stroke:#ff0000;" x="156.955595" xlink:href="#m9762a6d9c2" y="241.81426"/>
     <use style="fill:#ff0000;stroke:#ff0000;" x="145.841414" xlink:href="#m9762a6d9c2" y="219.917757"/>
     <use style="fill:#ff0000;stroke:#ff0000;" x="131.108879" xlink:href="#m9762a6d9c2" y="241.81426"/>
     <use style="fill:#ff0000;stroke:#ff0000;" x="233.631888" xlink:href="#m9762a6d9c2" y="154.228251"/>
     <use style="fill:#ff0000;stroke:#ff0000;" x="69.687569" xlink:href="#m9762a6d9c2" y="241.81426"/>
     <use style="fill:#ff0000;stroke:#ff0000;" x="103.97936" xlink:href="#m9762a6d9c2" y="241.81426"/>
     <use style="fill:#ff0000;stroke:#ff0000;" x="149.37319" xlink:href="#m9762a6d9c2" y="198.021255"/>
     <use style="fill:#ff0000;stroke:#ff0000;" x="271.218487" xlink:href="#m9762a6d9c2" y="198.021255"/>
     <use style="fill:#ff0000;stroke:#ff0000;" x="88.373324" xlink:href="#m9762a6d9c2" y="241.81426"/>
     <use style="fill:#ff0000;stroke:#ff0000;" x="208.138465" xlink:href="#m9762a6d9c2" y="241.81426"/>
     <use style="fill:#ff0000;stroke:#ff0000;" x="147.711386" xlink:href="#m9762a6d9c2" y="241.81426"/>
     <use style="fill:#ff0000;stroke:#ff0000;" x="125.795195" xlink:href="#m9762a6d9c2" y="241.81426"/>
     <use style="fill:#ff0000;stroke:#ff0000;" x="97.449713" xlink:href="#m9762a6d9c2" y="241.81426"/>
     <use style="fill:#ff0000;stroke:#ff0000;" x="157.131485" xlink:href="#m9762a6d9c2" y="241.81426"/>
     <use style="fill:#ff0000;stroke:#ff0000;" x="119.324954" xlink:href="#m9762a6d9c2" y="219.917757"/>
     <use style="fill:#ff0000;stroke:#ff0000;" x="144.150478" xlink:href="#m9762a6d9c2" y="219.917757"/>
     <use style="fill:#ff0000;stroke:#ff0000;" x="144.549157" xlink:href="#m9762a6d9c2" y="219.917757"/>
     <use style="fill:#ff0000;stroke:#ff0000;" x="134.868212" xlink:href="#m9762a6d9c2" y="241.81426"/>
     <use style="fill:#ff0000;stroke:#ff0000;" x="164.795563" xlink:href="#m9762a6d9c2" y="241.81426"/>
     <use style="fill:#ff0000;stroke:#ff0000;" x="373.112431" xlink:href="#m9762a6d9c2" y="44.74574"/>
     <use style="fill:#ff0000;stroke:#ff0000;" x="214.283558" xlink:href="#m9762a6d9c2" y="219.917757"/>
     <use style="fill:#ff0000;stroke:#ff0000;" x="163.883392" xlink:href="#m9762a6d9c2" y="219.917757"/>
     <use style="fill:#ff0000;stroke:#ff0000;" x="79.379268" xlink:href="#m9762a6d9c2" y="241.81426"/>
     <use style="fill:#ff0000;stroke:#ff0000;" x="139.261548" xlink:href="#m9762a6d9c2" y="241.81426"/>
     <use style="fill:#ff0000;stroke:#ff0000;" x="137.511743" xlink:href="#m9762a6d9c2" y="241.81426"/>
     <use style="fill:#ff0000;stroke:#ff0000;" x="213.965707" xlink:href="#m9762a6d9c2" y="241.81426"/>
     <use style="fill:#ff0000;stroke:#ff0000;" x="162.009114" xlink:href="#m9762a6d9c2" y="241.81426"/>
     <use style="fill:#ff0000;stroke:#ff0000;" x="106.359291" xlink:href="#m9762a6d9c2" y="241.81426"/>
     <use style="fill:#ff0000;stroke:#ff0000;" x="111.993406" xlink:href="#m9762a6d9c2" y="241.81426"/>
     <use style="fill:#ff0000;stroke:#ff0000;" x="154.33466" xlink:href="#m9762a6d9c2" y="241.81426"/>
     <use style="fill:#ff0000;stroke:#ff0000;" x="107.045947" xlink:href="#m9762a6d9c2" y="219.917757"/>
     <use style="fill:#ff0000;stroke:#ff0000;" x="136.076353" xlink:href="#m9762a6d9c2" y="241.81426"/>
     <use style="fill:#ff0000;stroke:#ff0000;" x="156.772825" xlink:href="#m9762a6d9c2" y="241.81426"/>
     <use style="fill:#ff0000;stroke:#ff0000;" x="180.497194" xlink:href="#m9762a6d9c2" y="198.021255"/>
     <use style="fill:#ff0000;stroke:#ff0000;" x="130.884495" xlink:href="#m9762a6d9c2" y="241.81426"/>
     <use style="fill:#ff0000;stroke:#ff0000;" x="137.975395" xlink:href="#m9762a6d9c2" y="241.81426"/>
     <use style="fill:#ff0000;stroke:#ff0000;" x="137.039933" xlink:href="#m9762a6d9c2" y="241.81426"/>
     <use style="fill:#ff0000;stroke:#ff0000;" x="127.347064" xlink:href="#m9762a6d9c2" y="241.81426"/>
     <use style="fill:#ff0000;stroke:#ff0000;" x="130.530539" xlink:href="#m9762a6d9c2" y="219.917757"/>
     <use style="fill:#ff0000;stroke:#ff0000;" x="157.696691" xlink:href="#m9762a6d9c2" y="241.81426"/>
     <use style="fill:#ff0000;stroke:#ff0000;" x="109.909178" xlink:href="#m9762a6d9c2" y="241.81426"/>
     <use style="fill:#ff0000;stroke:#ff0000;" x="109.299793" xlink:href="#m9762a6d9c2" y="241.81426"/>
     <use style="fill:#ff0000;stroke:#ff0000;" x="203.594756" xlink:href="#m9762a6d9c2" y="219.917757"/>
    </g>
   </g>
   <g id="matplotlib.axis_1">
    <g id="xtick_1">
     <g id="line2d_1">
      <defs>
       <path d="M 0 0 
L 0 3.5 
" id="mf81cd15d04" style="stroke:#000000;stroke-width:0.8;"/>
      </defs>
      <g>
       <use style="stroke:#000000;stroke-width:0.8;" x="59.79512" xlink:href="#mf81cd15d04" y="252"/>
      </g>
     </g>
     <g id="text_1">
      <!-- 0 -->
      <defs>
       <path d="M 31.78125 66.40625 
Q 24.171875 66.40625 20.328125 58.90625 
Q 16.5 51.421875 16.5 36.375 
Q 16.5 21.390625 20.328125 13.890625 
Q 24.171875 6.390625 31.78125 6.390625 
Q 39.453125 6.390625 43.28125 13.890625 
Q 47.125 21.390625 47.125 36.375 
Q 47.125 51.421875 43.28125 58.90625 
Q 39.453125 66.40625 31.78125 66.40625 
z
M 31.78125 74.21875 
Q 44.046875 74.21875 50.515625 64.515625 
Q 56.984375 54.828125 56.984375 36.375 
Q 56.984375 17.96875 50.515625 8.265625 
Q 44.046875 -1.421875 31.78125 -1.421875 
Q 19.53125 -1.421875 13.0625 8.265625 
Q 6.59375 17.96875 6.59375 36.375 
Q 6.59375 54.828125 13.0625 64.515625 
Q 19.53125 74.21875 31.78125 74.21875 
z
" id="DejaVuSans-30"/>
      </defs>
      <g transform="translate(56.61387 266.598437)scale(0.1 -0.1)">
       <use xlink:href="#DejaVuSans-30"/>
      </g>
     </g>
    </g>
    <g id="xtick_2">
     <g id="line2d_2">
      <g>
       <use style="stroke:#000000;stroke-width:0.8;" x="112.178693" xlink:href="#mf81cd15d04" y="252"/>
      </g>
     </g>
     <g id="text_2">
      <!-- 1 -->
      <defs>
       <path d="M 12.40625 8.296875 
L 28.515625 8.296875 
L 28.515625 63.921875 
L 10.984375 60.40625 
L 10.984375 69.390625 
L 28.421875 72.90625 
L 38.28125 72.90625 
L 38.28125 8.296875 
L 54.390625 8.296875 
L 54.390625 0 
L 12.40625 0 
z
" id="DejaVuSans-31"/>
      </defs>
      <g transform="translate(108.997443 266.598437)scale(0.1 -0.1)">
       <use xlink:href="#DejaVuSans-31"/>
      </g>
     </g>
    </g>
    <g id="xtick_3">
     <g id="line2d_3">
      <g>
       <use style="stroke:#000000;stroke-width:0.8;" x="164.562265" xlink:href="#mf81cd15d04" y="252"/>
      </g>
     </g>
     <g id="text_3">
      <!-- 2 -->
      <defs>
       <path d="M 19.1875 8.296875 
L 53.609375 8.296875 
L 53.609375 0 
L 7.328125 0 
L 7.328125 8.296875 
Q 12.9375 14.109375 22.625 23.890625 
Q 32.328125 33.6875 34.8125 36.53125 
Q 39.546875 41.84375 41.421875 45.53125 
Q 43.3125 49.21875 43.3125 52.78125 
Q 43.3125 58.59375 39.234375 62.25 
Q 35.15625 65.921875 28.609375 65.921875 
Q 23.96875 65.921875 18.8125 64.3125 
Q 13.671875 62.703125 7.8125 59.421875 
L 7.8125 69.390625 
Q 13.765625 71.78125 18.9375 73 
Q 24.125 74.21875 28.421875 74.21875 
Q 39.75 74.21875 46.484375 68.546875 
Q 53.21875 62.890625 53.21875 53.421875 
Q 53.21875 48.921875 51.53125 44.890625 
Q 49.859375 40.875 45.40625 35.40625 
Q 44.1875 33.984375 37.640625 27.21875 
Q 31.109375 20.453125 19.1875 8.296875 
z
" id="DejaVuSans-32"/>
      </defs>
      <g transform="translate(161.381015 266.598437)scale(0.1 -0.1)">
       <use xlink:href="#DejaVuSans-32"/>
      </g>
     </g>
    </g>
    <g id="xtick_4">
     <g id="line2d_4">
      <g>
       <use style="stroke:#000000;stroke-width:0.8;" x="216.945838" xlink:href="#mf81cd15d04" y="252"/>
      </g>
     </g>
     <g id="text_4">
      <!-- 3 -->
      <defs>
       <path d="M 40.578125 39.3125 
Q 47.65625 37.796875 51.625 33 
Q 55.609375 28.21875 55.609375 21.1875 
Q 55.609375 10.40625 48.1875 4.484375 
Q 40.765625 -1.421875 27.09375 -1.421875 
Q 22.515625 -1.421875 17.65625 -0.515625 
Q 12.796875 0.390625 7.625 2.203125 
L 7.625 11.71875 
Q 11.71875 9.328125 16.59375 8.109375 
Q 21.484375 6.890625 26.8125 6.890625 
Q 36.078125 6.890625 40.9375 10.546875 
Q 45.796875 14.203125 45.796875 21.1875 
Q 45.796875 27.640625 41.28125 31.265625 
Q 36.765625 34.90625 28.71875 34.90625 
L 20.21875 34.90625 
L 20.21875 43.015625 
L 29.109375 43.015625 
Q 36.375 43.015625 40.234375 45.921875 
Q 44.09375 48.828125 44.09375 54.296875 
Q 44.09375 59.90625 40.109375 62.90625 
Q 36.140625 65.921875 28.71875 65.921875 
Q 24.65625 65.921875 20.015625 65.03125 
Q 15.375 64.15625 9.8125 62.3125 
L 9.8125 71.09375 
Q 15.4375 72.65625 20.34375 73.4375 
Q 25.25 74.21875 29.59375 74.21875 
Q 40.828125 74.21875 47.359375 69.109375 
Q 53.90625 64.015625 53.90625 55.328125 
Q 53.90625 49.265625 50.4375 45.09375 
Q 46.96875 40.921875 40.578125 39.3125 
z
" id="DejaVuSans-33"/>
      </defs>
      <g transform="translate(213.764588 266.598437)scale(0.1 -0.1)">
       <use xlink:href="#DejaVuSans-33"/>
      </g>
     </g>
    </g>
    <g id="xtick_5">
     <g id="line2d_5">
      <g>
       <use style="stroke:#000000;stroke-width:0.8;" x="269.329411" xlink:href="#mf81cd15d04" y="252"/>
      </g>
     </g>
     <g id="text_5">
      <!-- 4 -->
      <defs>
       <path d="M 37.796875 64.3125 
L 12.890625 25.390625 
L 37.796875 25.390625 
z
M 35.203125 72.90625 
L 47.609375 72.90625 
L 47.609375 25.390625 
L 58.015625 25.390625 
L 58.015625 17.1875 
L 47.609375 17.1875 
L 47.609375 0 
L 37.796875 0 
L 37.796875 17.1875 
L 4.890625 17.1875 
L 4.890625 26.703125 
z
" id="DejaVuSans-34"/>
      </defs>
      <g transform="translate(266.148161 266.598437)scale(0.1 -0.1)">
       <use xlink:href="#DejaVuSans-34"/>
      </g>
     </g>
    </g>
    <g id="xtick_6">
     <g id="line2d_6">
      <g>
       <use style="stroke:#000000;stroke-width:0.8;" x="321.712984" xlink:href="#mf81cd15d04" y="252"/>
      </g>
     </g>
     <g id="text_6">
      <!-- 5 -->
      <defs>
       <path d="M 10.796875 72.90625 
L 49.515625 72.90625 
L 49.515625 64.59375 
L 19.828125 64.59375 
L 19.828125 46.734375 
Q 21.96875 47.46875 24.109375 47.828125 
Q 26.265625 48.1875 28.421875 48.1875 
Q 40.625 48.1875 47.75 41.5 
Q 54.890625 34.8125 54.890625 23.390625 
Q 54.890625 11.625 47.5625 5.09375 
Q 40.234375 -1.421875 26.90625 -1.421875 
Q 22.3125 -1.421875 17.546875 -0.640625 
Q 12.796875 0.140625 7.71875 1.703125 
L 7.71875 11.625 
Q 12.109375 9.234375 16.796875 8.0625 
Q 21.484375 6.890625 26.703125 6.890625 
Q 35.15625 6.890625 40.078125 11.328125 
Q 45.015625 15.765625 45.015625 23.390625 
Q 45.015625 31 40.078125 35.4375 
Q 35.15625 39.890625 26.703125 39.890625 
Q 22.75 39.890625 18.8125 39.015625 
Q 14.890625 38.140625 10.796875 36.28125 
z
" id="DejaVuSans-35"/>
      </defs>
      <g transform="translate(318.531734 266.598437)scale(0.1 -0.1)">
       <use xlink:href="#DejaVuSans-35"/>
      </g>
     </g>
    </g>
    <g id="xtick_7">
     <g id="line2d_7">
      <g>
       <use style="stroke:#000000;stroke-width:0.8;" x="374.096557" xlink:href="#mf81cd15d04" y="252"/>
      </g>
     </g>
     <g id="text_7">
      <!-- 6 -->
      <defs>
       <path d="M 33.015625 40.375 
Q 26.375 40.375 22.484375 35.828125 
Q 18.609375 31.296875 18.609375 23.390625 
Q 18.609375 15.53125 22.484375 10.953125 
Q 26.375 6.390625 33.015625 6.390625 
Q 39.65625 6.390625 43.53125 10.953125 
Q 47.40625 15.53125 47.40625 23.390625 
Q 47.40625 31.296875 43.53125 35.828125 
Q 39.65625 40.375 33.015625 40.375 
z
M 52.59375 71.296875 
L 52.59375 62.3125 
Q 48.875 64.0625 45.09375 64.984375 
Q 41.3125 65.921875 37.59375 65.921875 
Q 27.828125 65.921875 22.671875 59.328125 
Q 17.53125 52.734375 16.796875 39.40625 
Q 19.671875 43.65625 24.015625 45.921875 
Q 28.375 48.1875 33.59375 48.1875 
Q 44.578125 48.1875 50.953125 41.515625 
Q 57.328125 34.859375 57.328125 23.390625 
Q 57.328125 12.15625 50.6875 5.359375 
Q 44.046875 -1.421875 33.015625 -1.421875 
Q 20.359375 -1.421875 13.671875 8.265625 
Q 6.984375 17.96875 6.984375 36.375 
Q 6.984375 53.65625 15.1875 63.9375 
Q 23.390625 74.21875 37.203125 74.21875 
Q 40.921875 74.21875 44.703125 73.484375 
Q 48.484375 72.75 52.59375 71.296875 
z
" id="DejaVuSans-36"/>
      </defs>
      <g transform="translate(370.915307 266.598437)scale(0.1 -0.1)">
       <use xlink:href="#DejaVuSans-36"/>
      </g>
     </g>
    </g>
    <g id="text_8">
     <!-- Predicted Contract Length (years) -->
     <defs>
      <path d="M 19.671875 64.796875 
L 19.671875 37.40625 
L 32.078125 37.40625 
Q 38.96875 37.40625 42.71875 40.96875 
Q 46.484375 44.53125 46.484375 51.125 
Q 46.484375 57.671875 42.71875 61.234375 
Q 38.96875 64.796875 32.078125 64.796875 
z
M 9.8125 72.90625 
L 32.078125 72.90625 
Q 44.34375 72.90625 50.609375 67.359375 
Q 56.890625 61.8125 56.890625 51.125 
Q 56.890625 40.328125 50.609375 34.8125 
Q 44.34375 29.296875 32.078125 29.296875 
L 19.671875 29.296875 
L 19.671875 0 
L 9.8125 0 
z
" id="DejaVuSans-50"/>
      <path d="M 41.109375 46.296875 
Q 39.59375 47.171875 37.8125 47.578125 
Q 36.03125 48 33.890625 48 
Q 26.265625 48 22.1875 43.046875 
Q 18.109375 38.09375 18.109375 28.8125 
L 18.109375 0 
L 9.078125 0 
L 9.078125 54.6875 
L 18.109375 54.6875 
L 18.109375 46.1875 
Q 20.953125 51.171875 25.484375 53.578125 
Q 30.03125 56 36.53125 56 
Q 37.453125 56 38.578125 55.875 
Q 39.703125 55.765625 41.0625 55.515625 
z
" id="DejaVuSans-72"/>
      <path d="M 56.203125 29.59375 
L 56.203125 25.203125 
L 14.890625 25.203125 
Q 15.484375 15.921875 20.484375 11.0625 
Q 25.484375 6.203125 34.421875 6.203125 
Q 39.59375 6.203125 44.453125 7.46875 
Q 49.3125 8.734375 54.109375 11.28125 
L 54.109375 2.78125 
Q 49.265625 0.734375 44.1875 -0.34375 
Q 39.109375 -1.421875 33.890625 -1.421875 
Q 20.796875 -1.421875 13.15625 6.1875 
Q 5.515625 13.8125 5.515625 26.8125 
Q 5.515625 40.234375 12.765625 48.109375 
Q 20.015625 56 32.328125 56 
Q 43.359375 56 49.78125 48.890625 
Q 56.203125 41.796875 56.203125 29.59375 
z
M 47.21875 32.234375 
Q 47.125 39.59375 43.09375 43.984375 
Q 39.0625 48.390625 32.421875 48.390625 
Q 24.90625 48.390625 20.390625 44.140625 
Q 15.875 39.890625 15.1875 32.171875 
z
" id="DejaVuSans-65"/>
      <path d="M 45.40625 46.390625 
L 45.40625 75.984375 
L 54.390625 75.984375 
L 54.390625 0 
L 45.40625 0 
L 45.40625 8.203125 
Q 42.578125 3.328125 38.25 0.953125 
Q 33.9375 -1.421875 27.875 -1.421875 
Q 17.96875 -1.421875 11.734375 6.484375 
Q 5.515625 14.40625 5.515625 27.296875 
Q 5.515625 40.1875 11.734375 48.09375 
Q 17.96875 56 27.875 56 
Q 33.9375 56 38.25 53.625 
Q 42.578125 51.265625 45.40625 46.390625 
z
M 14.796875 27.296875 
Q 14.796875 17.390625 18.875 11.75 
Q 22.953125 6.109375 30.078125 6.109375 
Q 37.203125 6.109375 41.296875 11.75 
Q 45.40625 17.390625 45.40625 27.296875 
Q 45.40625 37.203125 41.296875 42.84375 
Q 37.203125 48.484375 30.078125 48.484375 
Q 22.953125 48.484375 18.875 42.84375 
Q 14.796875 37.203125 14.796875 27.296875 
z
" id="DejaVuSans-64"/>
      <path d="M 9.421875 54.6875 
L 18.40625 54.6875 
L 18.40625 0 
L 9.421875 0 
z
M 9.421875 75.984375 
L 18.40625 75.984375 
L 18.40625 64.59375 
L 9.421875 64.59375 
z
" id="DejaVuSans-69"/>
      <path d="M 48.78125 52.59375 
L 48.78125 44.1875 
Q 44.96875 46.296875 41.140625 47.34375 
Q 37.3125 48.390625 33.40625 48.390625 
Q 24.65625 48.390625 19.8125 42.84375 
Q 14.984375 37.3125 14.984375 27.296875 
Q 14.984375 17.28125 19.8125 11.734375 
Q 24.65625 6.203125 33.40625 6.203125 
Q 37.3125 6.203125 41.140625 7.25 
Q 44.96875 8.296875 48.78125 10.40625 
L 48.78125 2.09375 
Q 45.015625 0.34375 40.984375 -0.53125 
Q 36.96875 -1.421875 32.421875 -1.421875 
Q 20.0625 -1.421875 12.78125 6.34375 
Q 5.515625 14.109375 5.515625 27.296875 
Q 5.515625 40.671875 12.859375 48.328125 
Q 20.21875 56 33.015625 56 
Q 37.15625 56 41.109375 55.140625 
Q 45.0625 54.296875 48.78125 52.59375 
z
" id="DejaVuSans-63"/>
      <path d="M 18.3125 70.21875 
L 18.3125 54.6875 
L 36.8125 54.6875 
L 36.8125 47.703125 
L 18.3125 47.703125 
L 18.3125 18.015625 
Q 18.3125 11.328125 20.140625 9.421875 
Q 21.96875 7.515625 27.59375 7.515625 
L 36.8125 7.515625 
L 36.8125 0 
L 27.59375 0 
Q 17.1875 0 13.234375 3.875 
Q 9.28125 7.765625 9.28125 18.015625 
L 9.28125 47.703125 
L 2.6875 47.703125 
L 2.6875 54.6875 
L 9.28125 54.6875 
L 9.28125 70.21875 
z
" id="DejaVuSans-74"/>
      <path id="DejaVuSans-20"/>
      <path d="M 64.40625 67.28125 
L 64.40625 56.890625 
Q 59.421875 61.53125 53.78125 63.8125 
Q 48.140625 66.109375 41.796875 66.109375 
Q 29.296875 66.109375 22.65625 58.46875 
Q 16.015625 50.828125 16.015625 36.375 
Q 16.015625 21.96875 22.65625 14.328125 
Q 29.296875 6.6875 41.796875 6.6875 
Q 48.140625 6.6875 53.78125 8.984375 
Q 59.421875 11.28125 64.40625 15.921875 
L 64.40625 5.609375 
Q 59.234375 2.09375 53.4375 0.328125 
Q 47.65625 -1.421875 41.21875 -1.421875 
Q 24.65625 -1.421875 15.125 8.703125 
Q 5.609375 18.84375 5.609375 36.375 
Q 5.609375 53.953125 15.125 64.078125 
Q 24.65625 74.21875 41.21875 74.21875 
Q 47.75 74.21875 53.53125 72.484375 
Q 59.328125 70.75 64.40625 67.28125 
z
" id="DejaVuSans-43"/>
      <path d="M 30.609375 48.390625 
Q 23.390625 48.390625 19.1875 42.75 
Q 14.984375 37.109375 14.984375 27.296875 
Q 14.984375 17.484375 19.15625 11.84375 
Q 23.34375 6.203125 30.609375 6.203125 
Q 37.796875 6.203125 41.984375 11.859375 
Q 46.1875 17.53125 46.1875 27.296875 
Q 46.1875 37.015625 41.984375 42.703125 
Q 37.796875 48.390625 30.609375 48.390625 
z
M 30.609375 56 
Q 42.328125 56 49.015625 48.375 
Q 55.71875 40.765625 55.71875 27.296875 
Q 55.71875 13.875 49.015625 6.21875 
Q 42.328125 -1.421875 30.609375 -1.421875 
Q 18.84375 -1.421875 12.171875 6.21875 
Q 5.515625 13.875 5.515625 27.296875 
Q 5.515625 40.765625 12.171875 48.375 
Q 18.84375 56 30.609375 56 
z
" id="DejaVuSans-6f"/>
      <path d="M 54.890625 33.015625 
L 54.890625 0 
L 45.90625 0 
L 45.90625 32.71875 
Q 45.90625 40.484375 42.875 44.328125 
Q 39.84375 48.1875 33.796875 48.1875 
Q 26.515625 48.1875 22.3125 43.546875 
Q 18.109375 38.921875 18.109375 30.90625 
L 18.109375 0 
L 9.078125 0 
L 9.078125 54.6875 
L 18.109375 54.6875 
L 18.109375 46.1875 
Q 21.34375 51.125 25.703125 53.5625 
Q 30.078125 56 35.796875 56 
Q 45.21875 56 50.046875 50.171875 
Q 54.890625 44.34375 54.890625 33.015625 
z
" id="DejaVuSans-6e"/>
      <path d="M 34.28125 27.484375 
Q 23.390625 27.484375 19.1875 25 
Q 14.984375 22.515625 14.984375 16.5 
Q 14.984375 11.71875 18.140625 8.90625 
Q 21.296875 6.109375 26.703125 6.109375 
Q 34.1875 6.109375 38.703125 11.40625 
Q 43.21875 16.703125 43.21875 25.484375 
L 43.21875 27.484375 
z
M 52.203125 31.203125 
L 52.203125 0 
L 43.21875 0 
L 43.21875 8.296875 
Q 40.140625 3.328125 35.546875 0.953125 
Q 30.953125 -1.421875 24.3125 -1.421875 
Q 15.921875 -1.421875 10.953125 3.296875 
Q 6 8.015625 6 15.921875 
Q 6 25.140625 12.171875 29.828125 
Q 18.359375 34.515625 30.609375 34.515625 
L 43.21875 34.515625 
L 43.21875 35.40625 
Q 43.21875 41.609375 39.140625 45 
Q 35.0625 48.390625 27.6875 48.390625 
Q 23 48.390625 18.546875 47.265625 
Q 14.109375 46.140625 10.015625 43.890625 
L 10.015625 52.203125 
Q 14.9375 54.109375 19.578125 55.046875 
Q 24.21875 56 28.609375 56 
Q 40.484375 56 46.34375 49.84375 
Q 52.203125 43.703125 52.203125 31.203125 
z
" id="DejaVuSans-61"/>
      <path d="M 9.8125 72.90625 
L 19.671875 72.90625 
L 19.671875 8.296875 
L 55.171875 8.296875 
L 55.171875 0 
L 9.8125 0 
z
" id="DejaVuSans-4c"/>
      <path d="M 45.40625 27.984375 
Q 45.40625 37.75 41.375 43.109375 
Q 37.359375 48.484375 30.078125 48.484375 
Q 22.859375 48.484375 18.828125 43.109375 
Q 14.796875 37.75 14.796875 27.984375 
Q 14.796875 18.265625 18.828125 12.890625 
Q 22.859375 7.515625 30.078125 7.515625 
Q 37.359375 7.515625 41.375 12.890625 
Q 45.40625 18.265625 45.40625 27.984375 
z
M 54.390625 6.78125 
Q 54.390625 -7.171875 48.1875 -13.984375 
Q 42 -20.796875 29.203125 -20.796875 
Q 24.46875 -20.796875 20.265625 -20.09375 
Q 16.0625 -19.390625 12.109375 -17.921875 
L 12.109375 -9.1875 
Q 16.0625 -11.328125 19.921875 -12.34375 
Q 23.78125 -13.375 27.78125 -13.375 
Q 36.625 -13.375 41.015625 -8.765625 
Q 45.40625 -4.15625 45.40625 5.171875 
L 45.40625 9.625 
Q 42.625 4.78125 38.28125 2.390625 
Q 33.9375 0 27.875 0 
Q 17.828125 0 11.671875 7.65625 
Q 5.515625 15.328125 5.515625 27.984375 
Q 5.515625 40.671875 11.671875 48.328125 
Q 17.828125 56 27.875 56 
Q 33.9375 56 38.28125 53.609375 
Q 42.625 51.21875 45.40625 46.390625 
L 45.40625 54.6875 
L 54.390625 54.6875 
z
" id="DejaVuSans-67"/>
      <path d="M 54.890625 33.015625 
L 54.890625 0 
L 45.90625 0 
L 45.90625 32.71875 
Q 45.90625 40.484375 42.875 44.328125 
Q 39.84375 48.1875 33.796875 48.1875 
Q 26.515625 48.1875 22.3125 43.546875 
Q 18.109375 38.921875 18.109375 30.90625 
L 18.109375 0 
L 9.078125 0 
L 9.078125 75.984375 
L 18.109375 75.984375 
L 18.109375 46.1875 
Q 21.34375 51.125 25.703125 53.5625 
Q 30.078125 56 35.796875 56 
Q 45.21875 56 50.046875 50.171875 
Q 54.890625 44.34375 54.890625 33.015625 
z
" id="DejaVuSans-68"/>
      <path d="M 31 75.875 
Q 24.46875 64.65625 21.28125 53.65625 
Q 18.109375 42.671875 18.109375 31.390625 
Q 18.109375 20.125 21.3125 9.0625 
Q 24.515625 -2 31 -13.1875 
L 23.1875 -13.1875 
Q 15.875 -1.703125 12.234375 9.375 
Q 8.59375 20.453125 8.59375 31.390625 
Q 8.59375 42.28125 12.203125 53.3125 
Q 15.828125 64.359375 23.1875 75.875 
z
" id="DejaVuSans-28"/>
      <path d="M 32.171875 -5.078125 
Q 28.375 -14.84375 24.75 -17.8125 
Q 21.140625 -20.796875 15.09375 -20.796875 
L 7.90625 -20.796875 
L 7.90625 -13.28125 
L 13.1875 -13.28125 
Q 16.890625 -13.28125 18.9375 -11.515625 
Q 21 -9.765625 23.484375 -3.21875 
L 25.09375 0.875 
L 2.984375 54.6875 
L 12.5 54.6875 
L 29.59375 11.921875 
L 46.6875 54.6875 
L 56.203125 54.6875 
z
" id="DejaVuSans-79"/>
      <path d="M 44.28125 53.078125 
L 44.28125 44.578125 
Q 40.484375 46.53125 36.375 47.5 
Q 32.28125 48.484375 27.875 48.484375 
Q 21.1875 48.484375 17.84375 46.4375 
Q 14.5 44.390625 14.5 40.28125 
Q 14.5 37.15625 16.890625 35.375 
Q 19.28125 33.59375 26.515625 31.984375 
L 29.59375 31.296875 
Q 39.15625 29.25 43.1875 25.515625 
Q 47.21875 21.78125 47.21875 15.09375 
Q 47.21875 7.46875 41.1875 3.015625 
Q 35.15625 -1.421875 24.609375 -1.421875 
Q 20.21875 -1.421875 15.453125 -0.5625 
Q 10.6875 0.296875 5.421875 2 
L 5.421875 11.28125 
Q 10.40625 8.6875 15.234375 7.390625 
Q 20.0625 6.109375 24.8125 6.109375 
Q 31.15625 6.109375 34.5625 8.28125 
Q 37.984375 10.453125 37.984375 14.40625 
Q 37.984375 18.0625 35.515625 20.015625 
Q 33.0625 21.96875 24.703125 23.78125 
L 21.578125 24.515625 
Q 13.234375 26.265625 9.515625 29.90625 
Q 5.8125 33.546875 5.8125 39.890625 
Q 5.8125 47.609375 11.28125 51.796875 
Q 16.75 56 26.8125 56 
Q 31.78125 56 36.171875 55.265625 
Q 40.578125 54.546875 44.28125 53.078125 
z
" id="DejaVuSans-73"/>
      <path d="M 8.015625 75.875 
L 15.828125 75.875 
Q 23.140625 64.359375 26.78125 53.3125 
Q 30.421875 42.28125 30.421875 31.390625 
Q 30.421875 20.453125 26.78125 9.375 
Q 23.140625 -1.703125 15.828125 -13.1875 
L 8.015625 -13.1875 
Q 14.5 -2 17.703125 9.0625 
Q 20.90625 20.125 20.90625 31.390625 
Q 20.90625 42.671875 17.703125 53.65625 
Q 14.5 64.65625 8.015625 75.875 
z
" id="DejaVuSans-29"/>
     </defs>
     <g transform="translate(136.460938 280.276563)scale(0.1 -0.1)">
      <use xlink:href="#DejaVuSans-50"/>
      <use x="60.287109" xlink:href="#DejaVuSans-72"/>
      <use x="101.369141" xlink:href="#DejaVuSans-65"/>
      <use x="162.892578" xlink:href="#DejaVuSans-64"/>
      <use x="226.369141" xlink:href="#DejaVuSans-69"/>
      <use x="254.152344" xlink:href="#DejaVuSans-63"/>
      <use x="309.132812" xlink:href="#DejaVuSans-74"/>
      <use x="348.341797" xlink:href="#DejaVuSans-65"/>
      <use x="409.865234" xlink:href="#DejaVuSans-64"/>
      <use x="473.341797" xlink:href="#DejaVuSans-20"/>
      <use x="505.128906" xlink:href="#DejaVuSans-43"/>
      <use x="574.953125" xlink:href="#DejaVuSans-6f"/>
      <use x="636.134766" xlink:href="#DejaVuSans-6e"/>
      <use x="699.513672" xlink:href="#DejaVuSans-74"/>
      <use x="738.722656" xlink:href="#DejaVuSans-72"/>
      <use x="779.835938" xlink:href="#DejaVuSans-61"/>
      <use x="841.115234" xlink:href="#DejaVuSans-63"/>
      <use x="896.095703" xlink:href="#DejaVuSans-74"/>
      <use x="935.304688" xlink:href="#DejaVuSans-20"/>
      <use x="967.091797" xlink:href="#DejaVuSans-4c"/>
      <use x="1022.789062" xlink:href="#DejaVuSans-65"/>
      <use x="1084.3125" xlink:href="#DejaVuSans-6e"/>
      <use x="1147.691406" xlink:href="#DejaVuSans-67"/>
      <use x="1211.167969" xlink:href="#DejaVuSans-74"/>
      <use x="1250.376953" xlink:href="#DejaVuSans-68"/>
      <use x="1313.755859" xlink:href="#DejaVuSans-20"/>
      <use x="1345.542969" xlink:href="#DejaVuSans-28"/>
      <use x="1384.556641" xlink:href="#DejaVuSans-79"/>
      <use x="1443.736328" xlink:href="#DejaVuSans-65"/>
      <use x="1505.259766" xlink:href="#DejaVuSans-61"/>
      <use x="1566.539062" xlink:href="#DejaVuSans-72"/>
      <use x="1607.652344" xlink:href="#DejaVuSans-73"/>
      <use x="1659.751953" xlink:href="#DejaVuSans-29"/>
     </g>
    </g>
   </g>
   <g id="matplotlib.axis_2">
    <g id="ytick_1">
     <g id="line2d_8">
      <defs>
       <path d="M 0 0 
L -3.5 0 
" id="m6bf326b5a4" style="stroke:#000000;stroke-width:0.8;"/>
      </defs>
      <g>
       <use style="stroke:#000000;stroke-width:0.8;" x="54" xlink:href="#m6bf326b5a4" y="219.917757"/>
      </g>
     </g>
     <g id="text_9">
      <!-- 2 -->
      <g transform="translate(40.6375 223.716976)scale(0.1 -0.1)">
       <use xlink:href="#DejaVuSans-32"/>
      </g>
     </g>
    </g>
    <g id="ytick_2">
     <g id="line2d_9">
      <g>
       <use style="stroke:#000000;stroke-width:0.8;" x="54" xlink:href="#m6bf326b5a4" y="176.124753"/>
      </g>
     </g>
     <g id="text_10">
      <!-- 4 -->
      <g transform="translate(40.6375 179.923972)scale(0.1 -0.1)">
       <use xlink:href="#DejaVuSans-34"/>
      </g>
     </g>
    </g>
    <g id="ytick_3">
     <g id="line2d_10">
      <g>
       <use style="stroke:#000000;stroke-width:0.8;" x="54" xlink:href="#m6bf326b5a4" y="132.331749"/>
      </g>
     </g>
     <g id="text_11">
      <!-- 6 -->
      <g transform="translate(40.6375 136.130968)scale(0.1 -0.1)">
       <use xlink:href="#DejaVuSans-36"/>
      </g>
     </g>
    </g>
    <g id="ytick_4">
     <g id="line2d_11">
      <g>
       <use style="stroke:#000000;stroke-width:0.8;" x="54" xlink:href="#m6bf326b5a4" y="88.538745"/>
      </g>
     </g>
     <g id="text_12">
      <!-- 8 -->
      <defs>
       <path d="M 31.78125 34.625 
Q 24.75 34.625 20.71875 30.859375 
Q 16.703125 27.09375 16.703125 20.515625 
Q 16.703125 13.921875 20.71875 10.15625 
Q 24.75 6.390625 31.78125 6.390625 
Q 38.8125 6.390625 42.859375 10.171875 
Q 46.921875 13.96875 46.921875 20.515625 
Q 46.921875 27.09375 42.890625 30.859375 
Q 38.875 34.625 31.78125 34.625 
z
M 21.921875 38.8125 
Q 15.578125 40.375 12.03125 44.71875 
Q 8.5 49.078125 8.5 55.328125 
Q 8.5 64.0625 14.71875 69.140625 
Q 20.953125 74.21875 31.78125 74.21875 
Q 42.671875 74.21875 48.875 69.140625 
Q 55.078125 64.0625 55.078125 55.328125 
Q 55.078125 49.078125 51.53125 44.71875 
Q 48 40.375 41.703125 38.8125 
Q 48.828125 37.15625 52.796875 32.3125 
Q 56.78125 27.484375 56.78125 20.515625 
Q 56.78125 9.90625 50.3125 4.234375 
Q 43.84375 -1.421875 31.78125 -1.421875 
Q 19.734375 -1.421875 13.25 4.234375 
Q 6.78125 9.90625 6.78125 20.515625 
Q 6.78125 27.484375 10.78125 32.3125 
Q 14.796875 37.15625 21.921875 38.8125 
z
M 18.3125 54.390625 
Q 18.3125 48.734375 21.84375 45.5625 
Q 25.390625 42.390625 31.78125 42.390625 
Q 38.140625 42.390625 41.71875 45.5625 
Q 45.3125 48.734375 45.3125 54.390625 
Q 45.3125 60.0625 41.71875 63.234375 
Q 38.140625 66.40625 31.78125 66.40625 
Q 25.390625 66.40625 21.84375 63.234375 
Q 18.3125 60.0625 18.3125 54.390625 
z
" id="DejaVuSans-38"/>
      </defs>
      <g transform="translate(40.6375 92.337963)scale(0.1 -0.1)">
       <use xlink:href="#DejaVuSans-38"/>
      </g>
     </g>
    </g>
    <g id="ytick_5">
     <g id="line2d_12">
      <g>
       <use style="stroke:#000000;stroke-width:0.8;" x="54" xlink:href="#m6bf326b5a4" y="44.74574"/>
      </g>
     </g>
     <g id="text_13">
      <!-- 10 -->
      <g transform="translate(34.275 48.544959)scale(0.1 -0.1)">
       <use xlink:href="#DejaVuSans-31"/>
       <use x="63.623047" xlink:href="#DejaVuSans-30"/>
      </g>
     </g>
    </g>
    <g id="text_14">
     <!-- Actual Contract Length (years) -->
     <defs>
      <path d="M 34.1875 63.1875 
L 20.796875 26.90625 
L 47.609375 26.90625 
z
M 28.609375 72.90625 
L 39.796875 72.90625 
L 67.578125 0 
L 57.328125 0 
L 50.6875 18.703125 
L 17.828125 18.703125 
L 11.1875 0 
L 0.78125 0 
z
" id="DejaVuSans-41"/>
      <path d="M 8.5 21.578125 
L 8.5 54.6875 
L 17.484375 54.6875 
L 17.484375 21.921875 
Q 17.484375 14.15625 20.5 10.265625 
Q 23.53125 6.390625 29.59375 6.390625 
Q 36.859375 6.390625 41.078125 11.03125 
Q 45.3125 15.671875 45.3125 23.6875 
L 45.3125 54.6875 
L 54.296875 54.6875 
L 54.296875 0 
L 45.3125 0 
L 45.3125 8.40625 
Q 42.046875 3.421875 37.71875 1 
Q 33.40625 -1.421875 27.6875 -1.421875 
Q 18.265625 -1.421875 13.375 4.4375 
Q 8.5 10.296875 8.5 21.578125 
z
M 31.109375 56 
z
" id="DejaVuSans-75"/>
      <path d="M 9.421875 75.984375 
L 18.40625 75.984375 
L 18.40625 0 
L 9.421875 0 
z
" id="DejaVuSans-6c"/>
     </defs>
     <g transform="translate(28.195312 220.301875)rotate(-90)scale(0.1 -0.1)">
      <use xlink:href="#DejaVuSans-41"/>
      <use x="68.392578" xlink:href="#DejaVuSans-63"/>
      <use x="123.373047" xlink:href="#DejaVuSans-74"/>
      <use x="162.582031" xlink:href="#DejaVuSans-75"/>
      <use x="225.960938" xlink:href="#DejaVuSans-61"/>
      <use x="287.240234" xlink:href="#DejaVuSans-6c"/>
      <use x="315.023438" xlink:href="#DejaVuSans-20"/>
      <use x="346.810547" xlink:href="#DejaVuSans-43"/>
      <use x="416.634766" xlink:href="#DejaVuSans-6f"/>
      <use x="477.816406" xlink:href="#DejaVuSans-6e"/>
      <use x="541.195312" xlink:href="#DejaVuSans-74"/>
      <use x="580.404297" xlink:href="#DejaVuSans-72"/>
      <use x="621.517578" xlink:href="#DejaVuSans-61"/>
      <use x="682.796875" xlink:href="#DejaVuSans-63"/>
      <use x="737.777344" xlink:href="#DejaVuSans-74"/>
      <use x="776.986328" xlink:href="#DejaVuSans-20"/>
      <use x="808.773438" xlink:href="#DejaVuSans-4c"/>
      <use x="864.470703" xlink:href="#DejaVuSans-65"/>
      <use x="925.994141" xlink:href="#DejaVuSans-6e"/>
      <use x="989.373047" xlink:href="#DejaVuSans-67"/>
      <use x="1052.849609" xlink:href="#DejaVuSans-74"/>
      <use x="1092.058594" xlink:href="#DejaVuSans-68"/>
      <use x="1155.4375" xlink:href="#DejaVuSans-20"/>
      <use x="1187.224609" xlink:href="#DejaVuSans-28"/>
      <use x="1226.238281" xlink:href="#DejaVuSans-79"/>
      <use x="1285.417969" xlink:href="#DejaVuSans-65"/>
      <use x="1346.941406" xlink:href="#DejaVuSans-61"/>
      <use x="1408.220703" xlink:href="#DejaVuSans-72"/>
      <use x="1449.333984" xlink:href="#DejaVuSans-73"/>
      <use x="1501.433594" xlink:href="#DejaVuSans-29"/>
     </g>
    </g>
   </g>
   <g id="patch_3">
    <path d="M 54 252 
L 54 34.56 
" style="fill:none;stroke:#000000;stroke-linecap:square;stroke-linejoin:miter;stroke-width:0.8;"/>
   </g>
   <g id="patch_4">
    <path d="M 388.8 252 
L 388.8 34.56 
" style="fill:none;stroke:#000000;stroke-linecap:square;stroke-linejoin:miter;stroke-width:0.8;"/>
   </g>
   <g id="patch_5">
    <path d="M 54 252 
L 388.8 252 
" style="fill:none;stroke:#000000;stroke-linecap:square;stroke-linejoin:miter;stroke-width:0.8;"/>
   </g>
   <g id="patch_6">
    <path d="M 54 34.56 
L 388.8 34.56 
" style="fill:none;stroke:#000000;stroke-linecap:square;stroke-linejoin:miter;stroke-width:0.8;"/>
   </g>
   <g id="text_15">
    <!-- R^2 = 0.402 -->
    <defs>
     <path d="M 44.390625 34.1875 
Q 47.5625 33.109375 50.5625 29.59375 
Q 53.5625 26.078125 56.59375 19.921875 
L 66.609375 0 
L 56 0 
L 46.6875 18.703125 
Q 43.0625 26.03125 39.671875 28.421875 
Q 36.28125 30.8125 30.421875 30.8125 
L 19.671875 30.8125 
L 19.671875 0 
L 9.8125 0 
L 9.8125 72.90625 
L 32.078125 72.90625 
Q 44.578125 72.90625 50.734375 67.671875 
Q 56.890625 62.453125 56.890625 51.90625 
Q 56.890625 45.015625 53.6875 40.46875 
Q 50.484375 35.9375 44.390625 34.1875 
z
M 19.671875 64.796875 
L 19.671875 38.921875 
L 32.078125 38.921875 
Q 39.203125 38.921875 42.84375 42.21875 
Q 46.484375 45.515625 46.484375 51.90625 
Q 46.484375 58.296875 42.84375 61.546875 
Q 39.203125 64.796875 32.078125 64.796875 
z
" id="DejaVuSans-52"/>
     <path d="M 46.6875 72.90625 
L 73.1875 45.703125 
L 63.375 45.703125 
L 41.890625 64.984375 
L 20.40625 45.703125 
L 10.59375 45.703125 
L 37.109375 72.90625 
z
" id="DejaVuSans-5e"/>
     <path d="M 10.59375 45.40625 
L 73.1875 45.40625 
L 73.1875 37.203125 
L 10.59375 37.203125 
z
M 10.59375 25.484375 
L 73.1875 25.484375 
L 73.1875 17.1875 
L 10.59375 17.1875 
z
" id="DejaVuSans-3d"/>
     <path d="M 10.6875 12.40625 
L 21 12.40625 
L 21 0 
L 10.6875 0 
z
" id="DejaVuSans-2e"/>
    </defs>
    <g transform="translate(59.79512 110.435247)scale(0.1 -0.1)">
     <use xlink:href="#DejaVuSans-52"/>
     <use x="69.482422" xlink:href="#DejaVuSans-5e"/>
     <use x="153.271484" xlink:href="#DejaVuSans-32"/>
     <use x="216.894531" xlink:href="#DejaVuSans-20"/>
     <use x="248.681641" xlink:href="#DejaVuSans-3d"/>
     <use x="332.470703" xlink:href="#DejaVuSans-20"/>
     <use x="364.257812" xlink:href="#DejaVuSans-30"/>
     <use x="427.880859" xlink:href="#DejaVuSans-2e"/>
     <use x="459.667969" xlink:href="#DejaVuSans-34"/>
     <use x="523.291016" xlink:href="#DejaVuSans-30"/>
     <use x="586.914062" xlink:href="#DejaVuSans-32"/>
    </g>
   </g>
   <g id="text_16">
    <!-- Prediction Contract Length -->
    <g transform="translate(140.934375 28.56)scale(0.12 -0.12)">
     <use xlink:href="#DejaVuSans-50"/>
     <use x="60.287109" xlink:href="#DejaVuSans-72"/>
     <use x="101.369141" xlink:href="#DejaVuSans-65"/>
     <use x="162.892578" xlink:href="#DejaVuSans-64"/>
     <use x="226.369141" xlink:href="#DejaVuSans-69"/>
     <use x="254.152344" xlink:href="#DejaVuSans-63"/>
     <use x="309.132812" xlink:href="#DejaVuSans-74"/>
     <use x="348.341797" xlink:href="#DejaVuSans-69"/>
     <use x="376.125" xlink:href="#DejaVuSans-6f"/>
     <use x="437.306641" xlink:href="#DejaVuSans-6e"/>
     <use x="500.685547" xlink:href="#DejaVuSans-20"/>
     <use x="532.472656" xlink:href="#DejaVuSans-43"/>
     <use x="602.296875" xlink:href="#DejaVuSans-6f"/>
     <use x="663.478516" xlink:href="#DejaVuSans-6e"/>
     <use x="726.857422" xlink:href="#DejaVuSans-74"/>
     <use x="766.066406" xlink:href="#DejaVuSans-72"/>
     <use x="807.179688" xlink:href="#DejaVuSans-61"/>
     <use x="868.458984" xlink:href="#DejaVuSans-63"/>
     <use x="923.439453" xlink:href="#DejaVuSans-74"/>
     <use x="962.648438" xlink:href="#DejaVuSans-20"/>
     <use x="994.435547" xlink:href="#DejaVuSans-4c"/>
     <use x="1050.132812" xlink:href="#DejaVuSans-65"/>
     <use x="1111.65625" xlink:href="#DejaVuSans-6e"/>
     <use x="1175.035156" xlink:href="#DejaVuSans-67"/>
     <use x="1238.511719" xlink:href="#DejaVuSans-74"/>
     <use x="1277.720703" xlink:href="#DejaVuSans-68"/>
    </g>
   </g>
  </g>
 </g>
 <defs>
  <clipPath id="pfbb91de5a5">
   <rect height="217.44" width="334.8" x="54" y="34.56"/>
  </clipPath>
 </defs>
</svg>
